<svg width="19" height="19" viewBox="0 0 19 19" fill="none" xmlns="http://www.w3.org/2000/svg">
<path d="M11.4238 14.8991C11.2733 14.8991 11.1229 14.8437 11.0042 14.725C10.7746 14.4954 10.7746 14.1154 11.0042 13.8858L15.39 9.49997L11.0042 5.11414C10.7746 4.88455 10.7746 4.50455 11.0042 4.27497C11.2338 4.04539 11.6138 4.04539 11.8433 4.27497L16.6488 9.08039C16.8783 9.30997 16.8783 9.68997 16.6488 9.91955L11.8433 14.725C11.7246 14.8437 11.5742 14.8991 11.4238 14.8991Z" fill="white"/>
<path d="M16.0946 10.0938H2.77083C2.44624 10.0938 2.17708 9.82458 2.17708 9.5C2.17708 9.17542 2.44624 8.90625 2.77083 8.90625H16.0946C16.4192 8.90625 16.6883 9.17542 16.6883 9.5C16.6883 9.82458 16.4192 10.0938 16.0946 10.0938Z" fill="white"/>
</svg>
