<svg width="42" height="42" viewBox="0 0 42 42" fill="none" xmlns="http://www.w3.org/2000/svg">
<path d="M36.75 9.1875H5.25C4.5325 9.1875 3.9375 8.5925 3.9375 7.875C3.9375 7.1575 4.5325 6.5625 5.25 6.5625H36.75C37.4675 6.5625 38.0625 7.1575 38.0625 7.875C38.0625 8.5925 37.4675 9.1875 36.75 9.1875Z" fill="white"/>
<path d="M36.75 17.9375H20.1775C19.46 17.9375 18.865 17.3425 18.865 16.625C18.865 15.9075 19.46 15.3125 20.1775 15.3125H36.75C37.4675 15.3125 38.0625 15.9075 38.0625 16.625C38.0625 17.3425 37.4675 17.9375 36.75 17.9375Z" fill="white"/>
<path d="M36.75 26.6875H5.25C4.5325 26.6875 3.9375 26.0925 3.9375 25.375C3.9375 24.6575 4.5325 24.0625 5.25 24.0625H36.75C37.4675 24.0625 38.0625 24.6575 38.0625 25.375C38.0625 26.0925 37.4675 26.6875 36.75 26.6875Z" fill="white"/>
<path d="M36.75 35.4375H20.1775C19.46 35.4375 18.865 34.8425 18.865 34.125C18.865 33.4075 19.46 32.8125 20.1775 32.8125H36.75C37.4675 32.8125 38.0625 33.4075 38.0625 34.125C38.0625 34.8425 37.4675 35.4375 36.75 35.4375Z" fill="white"/>
</svg>
