<svg width="65" height="65" viewBox="0 0 65 65" fill="none" xmlns="http://www.w3.org/2000/svg">
<path d="M48.2183 34.4153H16.2183C15.1249 34.4153 14.2183 33.5086 14.2183 32.4153C14.2183 31.3219 15.1249 30.4153 16.2183 30.4153L48.2183 30.4153C49.3116 30.4153 50.2183 31.3219 50.2183 32.4153C50.2183 33.5086 49.3116 34.4153 48.2183 34.4153Z" fill="#292D32"/>
<path d="M32.2183 50.4153C31.1249 50.4153 30.2183 49.5086 30.2183 48.4153L30.2183 16.4153C30.2183 15.3219 31.1249 14.4153 32.2183 14.4153C33.3116 14.4153 34.2183 15.3219 34.2183 16.4153V48.4153C34.2183 49.5086 33.3116 50.4153 32.2183 50.4153Z" fill="#292D32"/>
</svg>
