<svg width="24" height="24" viewBox="0 0 24 24" fill="none" xmlns="http://www.w3.org/2000/svg">
<path d="M12.193 21.441C11.8959 21.441 11.6084 21.4027 11.3688 21.3164C7.70801 20.061 1.89093 15.6048 1.89093 9.02102C1.89093 5.66686 4.60301 2.94519 7.93801 2.94519C9.5576 2.94519 11.0718 3.57769 12.193 4.70852C13.3143 3.57769 14.8284 2.94519 16.448 2.94519C19.783 2.94519 22.4951 5.67644 22.4951 9.02102C22.4951 15.6144 16.678 20.061 13.0172 21.3164C12.7776 21.4027 12.4901 21.441 12.193 21.441ZM7.93801 4.38269C5.39843 4.38269 3.32843 6.46227 3.32843 9.02102C3.32843 15.5664 9.62468 19.2081 11.8384 19.9652C12.0109 20.0227 12.3847 20.0227 12.5572 19.9652C14.7613 19.2081 21.0672 15.576 21.0672 9.02102C21.0672 6.46227 18.9972 4.38269 16.4576 4.38269C15.0009 4.38269 13.6497 5.06311 12.7776 6.24186C12.5093 6.60602 11.8959 6.60602 11.6276 6.24186C10.7363 5.05352 9.39468 4.38269 7.93801 4.38269Z" fill="#F3F3F3"/>
</svg>
